<?xml version="1.0" standalone="no"?>
<!DOCTYPE svg PUBLIC "-//W3C//DTD SVG 20010904//EN"
 "http://www.w3.org/TR/2001/REC-SVG-20010904/DTD/svg10.dtd">
<svg version="1.0" xmlns="http://www.w3.org/2000/svg"
 width="1080.000000pt" height="1080.000000pt" viewBox="0 0 1080.000000 1080.000000"
 preserveAspectRatio="xMidYMid meet">

<g transform="translate(0.000000,1080.000000) scale(0.100000,-0.100000)"
fill="#000000" stroke="none">
<path d="M6515 10481 c-6 -5 -58 -34 -116 -64 -104 -55 -134 -71 -267 -145
-35 -19 -66 -42 -69 -51 -7 -19 -69 -172 -88 -216 -8 -16 -23 -55 -35 -85 -12
-30 -28 -68 -36 -85 -7 -16 -26 -61 -42 -100 -31 -79 -18 -75 -162 -55 -169
23 -339 -6 -485 -84 -89 -47 -103 -57 -188 -136 -91 -84 -200 -259 -221 -355
-19 -82 -28 -104 -44 -110 -10 -3 -33 -19 -50 -36 -40 -39 -42 -79 -8 -128 18
-25 28 -60 36 -116 6 -44 15 -107 20 -140 11 -78 59 -403 70 -480 5 -33 14
-94 20 -135 6 -41 16 -102 20 -135 5 -33 18 -121 30 -195 11 -74 24 -164 30
-200 5 -36 20 -139 34 -230 13 -91 27 -185 31 -210 3 -25 11 -73 17 -107 l10
-63 573 0 573 0 6 28 c3 15 15 92 26 172 12 80 26 172 31 205 12 81 28 186 39
265 7 55 33 220 55 360 5 33 21 144 50 350 8 52 23 156 35 230 33 221 41 272
47 325 4 31 15 61 29 78 37 44 32 83 -16 129 -23 21 -47 38 -54 38 -8 0 -20
26 -30 63 -54 197 -156 350 -315 469 -31 23 -59 45 -63 48 -7 5 29 104 72 197
11 24 20 45 20 48 0 3 9 27 21 53 12 26 25 56 29 67 22 54 51 122 63 144 11
22 59 50 317 187 47 25 89 50 94 54 5 5 -8 41 -30 84 -37 72 -56 89 -79 67z"/>
<path d="M1775 10342 c-20 -14 -72 -87 -97 -137 -46 -89 -53 -118 -53 -205 1
-75 5 -93 33 -152 46 -94 141 -192 348 -354 304 -238 369 -316 369 -445 0 -65
-9 -94 -48 -151 -37 -55 9 -29 90 51 170 169 188 293 61 427 -41 44 -214 174
-231 174 -7 0 -211 126 -282 173 -33 22 -92 72 -131 111 -139 140 -166 277
-85 431 27 52 42 85 38 85 -1 0 -7 -4 -12 -8z"/>
<path d="M8738 10193 c-32 -8 -58 -21 -58 -27 0 -7 18 -20 39 -29 88 -39 151
-124 151 -202 0 -69 -44 -185 -100 -265 -34 -48 -100 -178 -125 -244 -44 -117
-30 -230 38 -306 39 -44 110 -100 119 -94 4 3 0 18 -11 32 -63 88 -67 240 -11
350 89 172 288 236 373 121 29 -40 25 -134 -8 -198 -13 -27 -29 -52 -35 -56
-16 -10 -32 -45 -21 -45 14 0 126 118 168 177 44 61 95 163 113 228 18 63 18
210 1 255 -43 114 -110 195 -204 249 -120 67 -294 89 -429 54z"/>
<path d="M1593 10157 c-51 -58 -73 -119 -73 -202 0 -85 26 -145 109 -249 66
-82 113 -125 336 -306 212 -171 294 -252 325 -316 30 -65 26 -100 -20 -158
-14 -18 -14 -18 7 -7 76 40 97 150 44 232 -34 51 -59 79 -122 134 -52 46 -57
50 -164 130 -265 199 -380 310 -436 420 -30 60 -34 77 -34 145 0 77 8 103 48
163 29 43 15 53 -20 14z"/>
<path d="M8190 7945 c0 -994 0 -1017 20 -1055 38 -75 -17 -70 780 -70 789 0
741 -4 778 63 14 27 18 70 22 292 l5 260 240 5 c132 3 247 9 256 13 8 4 23 21
32 36 15 26 17 81 17 595 l0 566 -27 30 -28 31 -245 2 -245 2 -3 123 -3 122
-799 0 -800 0 0 -1015z m1967 506 c23 -34 23 -36 23 -368 0 -444 11 -423 -226
-423 -129 0 -153 2 -158 16 -8 22 -8 799 1 808 4 3 81 5 172 4 l165 -3 23 -34z"/>
<path d="M1320 8735 c-284 -18 -394 -39 -405 -76 -7 -21 11 -191 26 -254 31
-124 78 -246 127 -330 72 -125 231 -292 351 -370 83 -54 220 -125 242 -125 8
0 19 -4 25 -8 8 -8 33 -16 129 -41 134 -35 366 -42 500 -15 44 9 91 18 105 21
14 2 34 8 45 13 11 4 47 18 80 31 196 74 390 222 523 400 118 157 212 419 212
590 0 43 -3 48 -30 58 -61 23 -87 29 -155 40 -426 66 -1277 98 -1775 66z
m1109 -85 c410 -28 671 -68 671 -102 0 -81 -1207 -89 -1768 -12 -103 14 -220
39 -230 49 -13 12 11 33 45 40 165 32 947 48 1282 25z m-262 -421 c124 -59
203 -170 203 -285 0 -38 -4 -56 -14 -60 -9 -4 -92 58 -218 162 -112 92 -204
171 -206 175 -7 17 55 38 112 39 45 0 73 -7 123 -31z m-207 -80 c25 -22 92
-79 150 -127 58 -47 107 -89 110 -92 3 -3 26 -23 53 -44 26 -21 47 -42 47 -46
0 -5 -20 -16 -45 -26 -146 -55 -372 102 -391 274 -6 46 8 102 23 102 5 0 28
-19 53 -41z"/>
<path d="M554 8600 c-49 -19 -78 -149 -54 -238 34 -125 101 -204 230 -271 47
-24 114 -62 150 -85 110 -71 174 -103 223 -110 37 -6 47 -4 47 7 0 8 -7 21
-16 28 -27 22 -127 179 -156 244 -38 84 -64 176 -79 272 l-13 83 -36 5 c-56 9
-122 27 -165 45 -53 23 -105 31 -131 20z m259 -162 c10 -5 27 -24 37 -41 63
-102 -45 -224 -152 -173 -48 23 -73 71 -65 126 12 88 97 130 180 88z"/>
<path d="M1080 7860 c-114 -17 -324 -85 -409 -133 -88 -50 -138 -122 -125
-181 27 -130 243 -235 689 -336 22 -5 74 -14 115 -20 41 -6 100 -15 130 -20
178 -30 410 -43 755 -43 308 0 386 3 540 22 237 29 378 53 470 81 157 49 278
102 325 143 42 37 70 83 70 117 0 123 -198 242 -549 330 l-84 21 -36 -34 c-69
-65 -87 -79 -166 -132 -85 -57 -220 -123 -295 -144 -25 -7 -56 -17 -70 -21
-205 -64 -509 -54 -742 24 -165 56 -340 161 -483 290 -27 25 -57 45 -65 45 -8
-1 -40 -5 -70 -9z m-85 -140 c-3 -5 -11 -10 -16 -10 -24 0 -141 -64 -159 -87
-11 -14 -20 -39 -20 -56 0 -60 117 -141 258 -178 17 -5 49 -13 70 -19 213 -57
528 -95 977 -118 l160 -9 -217 -1 c-258 -2 -557 21 -758 59 -297 56 -470 117
-554 194 -58 53 -47 111 30 161 61 40 246 92 229 64z"/>
<path d="M7235 7057 c-55 -33 -114 -91 -140 -139 -28 -50 -30 -59 -30 -173 0
-128 7 -157 64 -275 35 -71 81 -135 196 -270 78 -91 123 -165 147 -235 20 -62
21 -74 10 -144 -12 -85 -42 -165 -84 -228 -15 -23 -28 -46 -28 -52 0 -6 -4
-11 -10 -11 -5 0 -10 -7 -10 -15 0 -25 13 -17 50 32 75 99 118 186 146 291 42
158 -17 308 -206 526 -20 23 -54 64 -76 91 -139 173 -177 347 -107 488 16 33
93 107 110 107 6 0 15 5 18 10 8 14 -25 12 -50 -3z"/>
<path d="M6793 6798 c-46 -78 -66 -150 -66 -237 0 -147 39 -217 255 -454 134
-147 171 -244 143 -378 -9 -41 -18 -82 -21 -93 -10 -32 11 -9 34 36 72 146 72
261 -1 416 -12 26 -77 103 -157 186 -157 163 -192 220 -198 323 -5 69 8 134
39 197 21 43 23 56 11 56 -4 0 -22 -24 -39 -52z"/>
<path d="M2153 6721 c-105 -48 -228 -206 -292 -376 -13 -33 -26 -69 -31 -80
-54 -142 -67 -395 -25 -510 69 -196 215 -372 354 -431 79 -33 171 2 171 66 0
67 26 81 36 19 4 -22 18 -54 31 -70 20 -24 33 -29 68 -29 53 0 84 12 150 59
128 92 227 228 282 393 26 76 25 303 -1 413 -42 176 -149 378 -251 474 -68 64
-124 90 -192 91 -45 0 -55 -4 -69 -25 -13 -20 -15 -36 -8 -78 4 -28 8 -153 8
-277 1 -124 5 -313 10 -420 6 -143 5 -207 -4 -240 -6 -25 -15 -71 -20 -104 -4
-32 -13 -63 -18 -68 -11 -11 -14 2 -26 92 -2 19 -10 58 -16 85 -8 36 -9 103
-3 235 4 102 8 286 9 410 0 124 4 251 9 282 6 46 4 63 -9 83 -14 21 -24 25
-69 25 -29 0 -70 -9 -94 -19z"/>
<path d="M7337 6726 c-11 -29 -8 -45 23 -109 23 -48 57 -90 146 -177 154 -152
214 -239 260 -375 46 -137 2 -327 -113 -487 -68 -94 9 -35 101 77 60 74 119
198 137 287 11 59 10 78 -4 144 -9 41 -27 96 -39 122 -38 77 -132 166 -276
265 -151 103 -188 140 -212 217 -12 38 -19 48 -23 36z"/>
<path d="M3490 5783 c-14 -2 -29 -9 -34 -14 -6 -5 -16 -9 -24 -9 -26 0 -128
-79 -203 -156 -121 -126 -207 -265 -265 -429 -25 -72 -28 -93 -28 -205 0 -72
6 -142 13 -165 61 -194 140 -321 241 -388 37 -26 93 -22 129 9 17 14 31 32 31
40 0 7 8 27 19 44 l19 31 -2 -75 c-1 -66 2 -77 23 -100 22 -23 32 -26 93 -26
37 0 76 4 86 9 9 5 39 19 67 31 213 94 373 291 421 516 19 91 19 331 0 421
-48 225 -118 348 -230 404 -54 26 -92 25 -111 -5 -9 -13 -22 -63 -30 -112 -13
-78 -51 -220 -74 -279 -12 -29 -46 -182 -71 -315 -25 -135 -46 -212 -73 -260
-26 -45 -58 -109 -68 -135 -24 -64 -23 -62 -27 -32 -2 16 1 42 7 59 6 17 11
66 11 109 0 87 11 135 65 289 41 117 82 247 95 300 5 19 20 81 34 138 14 57
36 128 50 159 49 105 29 143 -76 148 -35 2 -74 1 -88 -2z"/>
<path d="M6265 5333 c19 -230 99 -470 233 -705 115 -201 326 -415 499 -507 15
-7 115 -11 323 -11 l300 0 66 40 c174 105 365 318 474 528 33 64 48 74 71 46
7 -8 36 -28 63 -42 45 -24 62 -27 147 -27 82 0 102 3 144 25 65 33 124 95 158
163 38 77 39 193 2 270 -33 69 -77 122 -130 152 -56 34 -174 59 -210 45 -37
-14 -43 -7 -37 45 l5 45 -1057 0 -1057 0 6 -67z m2253 -187 c31 -16 74 -61 91
-93 6 -12 11 -45 11 -73 0 -98 -67 -170 -166 -178 -66 -5 -117 18 -155 71 -29
40 -30 52 -10 102 5 11 14 38 20 60 5 22 13 50 17 63 14 53 128 81 192 48z"/>
<path d="M2197 5180 c-65 -20 -73 -62 -31 -154 14 -32 46 -138 70 -236 39
-161 58 -223 85 -285 11 -27 59 -171 71 -215 5 -19 13 -84 18 -145 5 -60 12
-127 16 -147 9 -53 -9 -48 -25 7 -7 24 -25 63 -40 87 -15 24 -36 68 -48 98
-26 67 -32 93 -79 335 -19 99 -39 179 -68 270 -35 106 -44 143 -56 224 -16
113 -40 132 -124 101 -111 -42 -190 -169 -237 -380 -21 -95 -27 -332 -10 -430
38 -222 188 -419 396 -520 101 -49 137 -60 192 -60 38 0 50 5 80 35 l36 36 -7
72 -6 72 29 -61 c58 -122 130 -125 238 -11 57 60 88 108 122 187 58 135 64
165 64 300 0 146 -15 202 -98 365 -155 303 -418 506 -588 455z"/>
<path d="M5040 4799 c0 -6 21 -33 48 -60 63 -68 86 -113 86 -174 -1 -102 -86
-215 -279 -367 -151 -120 -195 -182 -195 -273 0 -119 95 -215 320 -325 41 -21
86 -40 100 -44 24 -6 24 -5 -5 16 -16 13 -53 45 -80 73 -86 85 -95 185 -30
315 30 59 68 106 174 215 93 96 139 156 165 219 l16 39 32 -25 c118 -91 83
-194 -145 -420 -50 -50 -96 -106 -107 -130 -37 -80 -21 -148 50 -217 45 -43
204 -130 216 -118 4 4 -2 14 -14 23 -34 23 -52 68 -52 125 0 56 31 157 61 201
11 14 19 29 19 33 0 4 15 28 33 54 171 238 151 412 -56 480 -35 12 -38 15 -32
42 4 18 0 51 -10 83 -25 78 -95 146 -210 202 -98 47 -105 50 -105 33z"/>
<path d="M6030 4052 c0 -17 68 -71 126 -100 100 -50 267 -99 417 -123 31 -5
85 -14 120 -20 89 -16 1076 -24 1187 -10 346 46 591 119 703 212 20 17 35 35
32 40 -8 11 -2585 12 -2585 1z"/>
<path d="M359 3651 c-142 -46 -172 -249 -68 -453 13 -26 19 -58 19 -110 0 -87
13 -115 62 -140 48 -25 85 -17 130 26 l34 33 394 6 c217 4 522 10 678 14 l282
6 0 -31 0 -32 85 0 85 0 0 31 c0 21 10 43 30 66 35 39 38 63 10 88 -11 10 -20
24 -20 31 0 26 -51 54 -101 54 -65 0 -92 -14 -112 -60 -21 -48 -6 -46 -357
-60 -151 -6 -354 -15 -450 -20 -96 -5 -256 -11 -355 -12 l-179 -3 -9 36 c-7
29 -4 46 12 80 12 23 21 51 21 60 0 10 4 20 9 23 14 9 33 155 26 195 -12 65
-44 120 -85 147 -42 28 -100 38 -141 25z"/>
<path d="M9030 3532 c0 -5 10 -17 22 -28 11 -10 38 -46 60 -78 29 -45 38 -69
38 -102 0 -97 -75 -201 -249 -345 -170 -142 -209 -236 -140 -344 52 -81 121
-136 270 -211 74 -37 106 -38 54 -1 -70 50 -125 134 -125 191 0 52 39 156 79
212 20 28 75 93 122 143 222 236 208 408 -43 535 -72 37 -88 42 -88 28z"/>
<path d="M4258 3409 c-14 -9 -37 -237 -44 -439 -9 -236 15 -501 67 -765 11
-55 24 -113 29 -130 5 -16 14 -50 20 -75 7 -25 16 -53 21 -62 5 -10 9 -23 9
-30 0 -38 112 -288 189 -423 23 -39 118 -162 153 -197 17 -17 48 -18 418 -18
l399 0 50 60 c128 154 230 346 301 568 21 66 39 105 49 109 127 39 269 135
358 242 62 75 126 198 148 284 8 32 15 97 15 145 0 164 -69 285 -195 342 -56
26 -85 31 -166 33 l-64 2 -7 105 c-7 115 -24 239 -32 248 -8 7 -1705 8 -1718
1z m409 -171 c-28 -111 -32 -193 -31 -643 2 -447 19 -860 39 -909 10 -22 -14
-18 -26 5 -12 22 -66 205 -93 309 -73 286 -116 760 -96 1050 5 74 9 152 10
173 l0 37 101 0 c100 0 101 0 96 -22z m1513 -404 c21 -14 51 -44 67 -67 25
-39 28 -49 28 -137 0 -82 -4 -103 -28 -153 -38 -83 -83 -140 -152 -193 -76
-59 -145 -83 -131 -47 15 38 36 228 47 413 6 107 12 201 15 209 7 22 107 6
154 -25z"/>
<path d="M9340 3154 c0 -3 18 -26 40 -51 34 -38 40 -53 40 -89 0 -68 -43 -136
-159 -251 -94 -93 -131 -153 -131 -215 0 -27 6 -58 13 -71 24 -43 94 -102 160
-136 68 -34 96 -36 61 -3 -32 29 -44 59 -44 108 0 79 36 170 112 282 65 96 98
203 84 276 -9 47 -57 101 -117 132 -51 25 -59 28 -59 18z"/>
<path d="M1160 2932 c0 -8 80 -77 127 -110 17 -12 35 -32 38 -43 14 -42 76
-136 117 -176 24 -23 70 -56 103 -74 107 -57 113 -63 117 -120 3 -57 -7 -72
-114 -163 -32 -27 -58 -52 -58 -57 0 -5 217 -9 495 -9 528 0 530 0 468 47 -16
11 -54 44 -85 72 -57 52 -58 54 -58 107 0 58 -1 57 132 129 68 37 125 93 167
165 22 40 41 78 41 86 0 7 12 20 28 28 15 8 38 25 52 38 14 13 40 35 58 51 19
15 30 27 25 27 -4 0 -378 2 -830 4 -453 3 -823 2 -823 -2z"/>
<path d="M9003 2623 c-7 -2 -13 -14 -13 -24 0 -18 6 -20 58 -17 50 3 57 6 60
26 3 20 0 22 -45 21 -26 0 -54 -3 -60 -6z"/>
<path d="M9392 2604 c-27 -29 -6 -44 59 -44 34 0 92 -5 128 -10 36 -6 98 -15
136 -21 193 -30 325 -85 325 -136 0 -147 -906 -235 -1515 -148 -172 25 -253
45 -330 81 -115 55 -93 109 65 159 93 29 112 33 195 45 44 6 104 15 134 20 30
6 78 10 107 10 58 0 76 13 48 36 -15 12 -38 14 -104 9 -280 -18 -561 -87 -621
-151 -22 -23 -23 -32 -21 -122 4 -134 29 -304 71 -482 22 -95 116 -330 168
-421 2 -3 -7 -10 -19 -16 -13 -6 -53 -25 -89 -42 -73 -34 -152 -98 -174 -142
-91 -176 218 -347 750 -414 164 -21 637 -21 800 0 534 68 841 238 750 414 -21
42 -102 109 -169 142 -33 16 -64 29 -70 29 -6 0 -20 7 -31 16 -19 14 -19 15
-1 49 18 33 22 35 70 35 65 0 143 21 215 57 71 35 180 143 210 207 44 94 48
212 10 286 -41 81 -148 150 -233 150 -55 0 -66 12 -55 58 5 20 9 67 9 103 0
57 -3 70 -24 91 -39 39 -96 62 -231 97 -73 19 -298 50 -400 56 -55 3 -111 8
-125 10 -14 2 -31 -3 -38 -11z m850 -551 c15 -3 44 -20 66 -38 95 -82 75 -207
-50 -307 -35 -29 -173 -82 -188 -73 -5 3 -2 22 7 43 22 50 51 158 75 272 25
124 25 123 46 115 9 -3 29 -9 44 -12z m-1802 -860 c111 -53 255 -95 405 -118
162 -26 465 -16 605 20 14 3 45 11 70 17 62 15 175 52 233 77 65 28 72 27 47
-9 -37 -52 -178 -119 -300 -141 -461 -85 -973 -25 -1114 131 -20 22 -34 45
-30 51 3 6 9 8 12 7 4 -2 36 -18 72 -35z"/>
<path d="M713 2125 c-19 -21 -16 -79 5 -98 13 -12 43 -17 122 -19 l105 -3 0
-650 0 -650 -109 -3 c-89 -2 -112 -6 -122 -20 -18 -23 -17 -83 2 -110 l15 -22
1244 0 1244 0 20 29 c26 36 26 55 1 92 -20 27 -24 28 -113 31 l-92 3 0 650 0
650 99 3 c80 2 102 6 112 20 17 22 17 72 0 95 -12 16 -84 17 -1267 17 -1070
-1 -1256 -3 -1266 -15z m1841 -655 c78 -50 86 -78 86 -311 0 -210 -6 -246 -49
-292 -54 -58 -40 -57 -583 -57 -481 0 -500 1 -538 20 -22 11 -51 38 -65 60
-25 39 -25 42 -25 268 l0 228 36 43 c62 72 42 69 595 70 l495 1 48 -30z"/>
<path d="M1967 1372 c-35 -39 -9 -102 41 -102 28 0 62 34 62 60 0 27 -35 60
-63 60 -13 0 -31 -8 -40 -18z"/>
<path d="M4120 1173 c1 -5 33 -30 72 -58 39 -27 76 -54 82 -60 6 -5 63 -49
127 -97 l116 -88 617 0 616 0 195 146 c107 81 195 150 195 155 0 5 -438 9
-1010 9 -555 0 -1010 -3 -1010 -7z"/>
</g>
</svg>
